<?xml version="1.0" encoding="UTF-8"?>
<svg width="80px" height="80px" viewBox="0 0 80 80" version="1.1" xmlns="http://www.w3.org/2000/svg" xmlns:xlink="http://www.w3.org/1999/xlink">
    <!-- Generator: Sketch 52.2 (67145) - http://www.bohemiancoding.com/sketch -->
    <title>人物-女</title>
    <desc>Created with Sketch.</desc>
    <g id="人脉" stroke="none" stroke-width="1" fill="none" fill-rule="evenodd">
        <g id="人物-女">
            <path d="M0.0216216216,39.9706306 C0.0216216216,62.0417702 17.9138154,79.933964 39.984955,79.933964 C62.0560945,79.933964 79.9482883,62.0417702 79.9482883,39.9706306 C79.9482883,17.8994911 62.0560945,0.0072972973 39.984955,0.0072972973 C17.9138154,0.0072972973 0.0216216216,17.8994911 0.0216216216,39.9706306 L0.0216216216,39.9706306 Z" id="Shape" fill="#FDD7D7"></path>
            <path d="M42.279009,67.0413181 L37.0507207,66.9677797 C26.0634234,66.8131914 18.1281982,55.7932802 19.2316216,43.4081325 L20,34.7739074 L20.2227928,32.3181141 L20.4234234,30.0373106 L20.5909009,28.1679699 C21.4981081,18.0228225 29.3988288,10.467748 38.2987387,10.5929395 L42.5328829,10.6525678 C51.4328829,10.777852 59.1259459,18.5524289 59.7634234,28.7192761 L59.8484685,30.0743117 L60.7173874,43.9918958 C61.4951351,56.4034728 53.2701802,67.1959992 42.279009,67.0413181 Z" id="Shape" fill="#332115"></path>
            <path d="M23.8106306,39.9189994 C21.0572072,41.5208013 16.6601802,29.7409314 23.9381982,30.3120827 C31.2162162,30.8832341 23.8106306,39.9189994 23.8106306,39.9189994 Z M56.1123423,40.381466 C58.8647748,41.9848444 63.2684685,30.2077565 55.9901802,30.7744566 C48.7118919,31.3413423 56.1123423,40.381466 56.1123423,40.381466 Z" id="Shape" fill="#FFE1CC"></path>
            <path d="M57.4827027,34.2818585 C57.3947748,40.8989242 53.8126126,47.8338835 48.5722523,51.6503692 C47.5801802,52.3745324 46.5222523,52.9875998 45.4225225,53.4655531 C45.3786486,53.4853055 45.3348649,53.505058 45.2910811,53.5208228 C43.566036,54.2468407 41.7306306,54.6410548 39.8294595,54.6142545 C37.8807207,54.5868051 36.0091892,54.1200727 34.2689189,53.3085537 C34.2452252,53.3000221 34.2255856,53.2875957 34.201982,53.2749838 C33.0445045,52.7326728 31.9485586,52.0321569 30.9254054,51.2144246 L30.9136937,51.2019982 C25.9197297,47.2047731 22.6362162,40.2996743 22.7227027,33.7925916 C22.8538739,23.9138703 30.7433333,16.011969 40.3403604,16.1469904 C49.9413514,16.2821972 57.613964,24.4031372 57.4827027,34.2818585 L57.4827027,34.2818585 Z" id="Shape" fill="#FFE1CC"></path>
            <path d="M59.7627928,28.7477455 C59.1253153,18.5808984 51.4318919,10.8348837 42.5318919,10.7095994 L38.2977477,10.6499712 C29.3978378,10.524687 21.4975676,18.051292 20.5902703,28.1964393 L20.4232432,30.0372179 C20.9798198,30.1918062 21.5443243,30.3384193 22.1128829,30.4810449 C22.412973,30.5545833 22.717027,30.6282144 23.025045,30.7018456 C24.2302923,30.9827883 25.4422403,31.2323544 26.6597297,31.4503052 C27.9461696,31.6812407 29.2382283,31.8776878 30.5345946,32.0394471 C31.0877477,32.1087197 31.6028829,31.733238 31.73,31.1747912 L32.983964,25.6632127 C32.983964,25.6632127 33.484955,28.5594019 34.7052252,30.9640986 C35.1936036,31.9264965 36.1472072,32.5429023 37.2012613,32.5846328 C37.8514414,32.610413 38.5051351,32.6284035 39.1624324,32.6375842 C44.2401802,32.7090825 49.1342342,32.2966924 53.7327928,31.4643081 C54.8565766,31.2640017 55.9609009,31.0348549 57.0457658,30.7850284 L57.1888288,30.7503457 C58.0869369,30.542806 58.9733333,30.3146793 59.8481081,30.0741262 L59.7627928,28.7477455 L59.7627928,28.7477455 Z" id="Shape" fill="#332115"></path>
            <polygon id="Shape" fill="#FFE1CC" points="34.0763964 62.7888878 34.2989189 46.073042 45.3890991 46.2293923 45.1665766 62.9452381"></polygon>
            <path d="M45.2910811,53.5208228 L45.2693694,55.1557309 C42.077027,56.8928324 37.7913514,56.5430381 34.1783784,55.052703 L34.201982,53.2750766 C34.2255856,53.2876884 34.2452252,53.3001148 34.2689189,53.3086464 C36.0091892,54.1201655 37.8807207,54.5868979 39.8294595,54.6143473 C41.7305405,54.6410548 43.566036,54.2468407 45.2910811,53.5208228 Z" id="Shape" fill="#F4C7A8"></path>
            <path d="M55.6508108,66.2168162 C55.592973,70.5701416 48.3954955,73.9985337 39.5747748,73.8743623 C30.7540541,73.7501909 23.6502703,70.1205651 23.7081081,65.7672397 C23.7659459,61.4139143 30.9345045,60.1599593 39.7552252,60.2841307 C48.5759459,60.4083021 55.7085586,61.8634909 55.6508108,66.2168162 L55.6508108,66.2168162 Z" id="Shape" fill="#FFE1CC"></path>
            <path d="M62.0200901,73.1184839 C55.5554054,77.530232 47.7756757,80.0501048 39.4373874,79.9318684 C31.1347748,79.813632 23.461982,77.0979968 17.131982,72.5476107 C19.1640541,67.8381851 22.2022523,64.5191269 25.906036,62.3580436 C26.9716216,61.7342191 28.0926126,61.2082294 29.2611712,60.7759941 C29.8101926,60.5711578 30.3664676,60.3875388 30.9288288,60.2255225 C30.9921622,60.205121 31.0595495,60.1847194 31.1228829,60.1684909 C31.1228829,60.1848121 31.1228829,60.2052137 31.1268468,60.2255225 C31.1308108,60.3396786 31.1863063,60.5150394 31.2853153,60.7392713 C31.8596396,62.0807677 33.9194595,65.1266302 36.2843243,66.9410722 C37.3776577,67.7810607 38.5381982,68.3559215 39.6473874,68.3722427 C40.7564865,68.388564 41.932973,67.8421727 43.053964,67.0307464 C45.4623423,65.2896574 47.6014414,62.3009192 48.2154054,60.9798244 C48.3183784,60.7595802 48.3778378,60.5843121 48.3857658,60.470156 C48.3897297,60.4497544 48.3897297,60.4293528 48.3897297,60.4130316 C48.4530631,60.4334331 48.5125225,60.4538347 48.5758559,60.4742363 C49.1361684,60.652636 49.6897991,60.8525568 50.2355856,61.073579 C51.3922523,61.5384567 52.4974775,62.0969962 53.5431532,62.7453954 C57.1755856,65.0002332 60.1147748,68.3845764 62.0200901,73.1184839 L62.0200901,73.1184839 Z" id="Shape" fill="#FF5254"></path>
            <path d="M47.6127027,60.4598625 C47.2801802,60.4552257 46.9678378,60.6327194 46.8037838,60.930397 C45.2471171,63.7542533 42.6154054,66.6768718 39.6709009,66.6354195 C36.7263964,66.5939672 34.1733333,63.5983667 32.6921622,60.7317598 C32.536036,60.4295383 32.2284685,60.2433275 31.896036,60.2385981 L30.1152252,60.2135598 C29.4328829,60.2039154 28.9748649,60.9325299 29.2648649,61.5684099 C31.1335135,65.6656028 34.8021622,70.1083241 39.6238739,70.1762057 C44.4454955,70.2440873 48.2307207,65.9061559 50.2074775,61.8631199 C50.5142342,61.235586 50.0757658,60.4944524 49.3934234,60.4849008 L47.6127027,60.4598625 Z" id="Shape" fill="#FFFBFF"></path>
        </g>
    </g>
</svg>