<?xml version="1.0" encoding="UTF-8"?>
<svg width="23px" height="29px" viewBox="0 0 23 29" version="1.1" xmlns="http://www.w3.org/2000/svg" xmlns:xlink="http://www.w3.org/1999/xlink">
    <title>定位</title>
    <defs>
        <polygon id="path-1" points="0 0 22.988071 0 22.988071 28.7454676 0 28.7454676"></polygon>
    </defs>
    <g id="20231220" stroke="none" stroke-width="1" fill="none" fill-rule="evenodd">
        <g id="家谱简介" transform="translate(-1010.000000, -379.000000)">
            <g id="定位" transform="translate(1010.000000, 379.000000)">
                <path d="M11.4925121,7.18632778 C9.11108295,7.19006974 7.18317147,9.12338069 7.18685832,11.5046389 C7.19055575,13.8858971 9.12400543,15.8136703 11.5054345,15.8099837 C13.8868637,15.8065942 15.8147751,13.8729756 15.8110883,11.4917174 C15.8092369,10.3487749 15.3538732,9.25351922 14.5449873,8.44622961 C13.7367167,7.63463281 12.6373826,7.18084006 11.4925121,7.18632778 M11.4925121,8.80126251 C12.9730595,8.80341834 14.171466,10.0054307 14.1693151,11.4861795 C14.1671585,12.9666207 12.9650598,14.1652489 11.4848201,14.1627914 C10.003965,14.160634 8.80555852,12.9589293 8.80740246,11.4781805 C8.80832762,10.7714944 9.08862244,10.093728 9.58675342,9.59255624 C10.0907303,9.08523133 10.7771603,8.80034178 11.4925121,8.80126251" id="Fill-1" fill="#9D7747"></path>
                <g id="Group-5">
                    <mask id="mask-2" fill="white">
                        <use xlink:href="#path-1"></use>
                    </mask>
                    <g id="Clip-4"></g>
                    <path d="M18.3999807,19.1352586 L11.4941708,26.3206119 L4.58836091,19.1352586 C0.775436647,15.1567418 0.775436647,8.83341183 4.58836091,4.85489502 C8.28866288,0.995809 14.3800749,0.90272827 18.194352,4.64683221 C18.2640222,4.71493172 18.3323397,4.78440006 18.3999807,4.85489502 C22.2125667,8.83341183 22.2125667,15.1567418 18.3999807,19.1352586 M19.6246213,3.48948284 C15.2840971,-1.05402032 8.12497161,-1.17653099 3.63462254,3.21537377 C3.54263075,3.30503242 3.45232999,3.39674431 3.36338205,3.48948284 C-1.12121754,8.18253114 -1.12121754,15.627963 3.36338205,20.3210113 L11.4941708,28.7455018 L19.6246213,20.3210113 C24.1092209,15.627963 24.1092209,8.18253114 19.6246213,3.48948284" id="Fill-3" fill="#9D7747" mask="url(#mask-2)"></path>
                </g>
            </g>
        </g>
    </g>
</svg>