<?xml version="1.0" encoding="UTF-8"?>
<svg width="22px" height="21px" viewBox="0 0 22 21" version="1.1" xmlns="http://www.w3.org/2000/svg" xmlns:xlink="http://www.w3.org/1999/xlink">
    <title>全文</title>
    <defs>
        <polygon id="path-1" points="0 0 21.5605749 0 21.5605749 20.1218638 0 20.1218638"></polygon>
    </defs>
    <g id="20231220" stroke="none" stroke-width="1" fill="none" fill-rule="evenodd">
        <g id="家谱简介" transform="translate(-344.000000, -737.000000)">
            <g id="编组-2" transform="translate(344.000000, 733.000000)">
                <g id="全文" transform="translate(0.000000, 4.000000)">
                    <mask id="mask-2" fill="white">
                        <use xlink:href="#path-1"></use>
                    </mask>
                    <g id="Clip-2"></g>
                    <path d="M16.1611091,14.9613122 L12.7408858,15.6800048 C12.5028026,15.7298197 12.3503731,15.9611585 12.401391,16.1972783 C12.4457,16.401936 12.628553,16.5422815 12.8326243,16.5422815 C12.8625797,16.5422815 12.8933152,16.5390428 12.9240508,16.5328738 L16.3441181,15.8141813 C16.5823573,15.7643663 16.7352548,15.5328733 16.684393,15.2970619 C16.6332192,15.0609421 16.3991924,14.91196 16.1611091,14.9613122 L16.1611091,14.9613122 Z M16.1611091,12.6411384 L12.7408858,13.3596767 C12.5028026,13.4096458 12.3503731,13.6414473 12.401391,13.8769502 C12.4457,14.0822248 12.628553,14.2221077 12.8326243,14.2221077 C12.8625797,14.2221077 12.8933152,14.2193316 12.9240508,14.2126999 L16.3441181,13.4933905 C16.5823573,13.4435755 16.7352548,13.2122367 16.684393,12.9762712 C16.6332192,12.7413852 16.3991924,12.5900896 16.1611091,12.6411384 L16.1611091,12.6411384 Z M16.1611091,10.3209645 L12.7408858,11.0395028 C12.5028026,11.0896262 12.3503731,11.320965 12.401391,11.5563137 C12.4457,11.7614341 12.628553,11.9017796 12.8326243,11.9017796 C12.8625797,11.9017796 12.8933152,11.8988493 12.9240508,11.8922176 L16.3441181,11.1736793 C16.5823573,11.1238643 16.7352548,10.8920629 16.684393,10.6567142 C16.6332192,10.4212113 16.3991924,10.2722291 16.1611091,10.3209645 L16.1611091,10.3209645 Z M16.1611091,8.00017374 L12.7408858,8.71932893 C12.5028026,8.76945233 12.3503731,9.00079113 12.401391,9.23660247 C12.4457,9.44126019 12.628553,9.58160572 12.8326243,9.58160572 C12.8625797,9.58160572 12.8933152,9.57867543 12.9240508,9.57235217 L16.3441181,8.85319698 C16.5823573,8.8032278 16.7352548,8.57173478 16.684393,8.33592344 C16.6332192,8.10057477 16.3991924,7.95035878 16.1611091,8.00017374 L16.1611091,8.00017374 Z M16.1611091,5.68061677 L12.7408858,6.39884661 C12.5028026,6.44866157 12.3503731,6.68061726 12.401391,6.91596593 C12.4457,7.12108632 12.628553,7.26096918 12.8326243,7.26096918 C12.8625797,7.26096918 12.8933152,7.25850157 12.9240508,7.25171563 L16.3441181,6.53302311 C16.5823573,6.48305393 16.7352548,6.25171514 16.684393,6.01574957 C16.6332192,5.78086358 16.3991924,5.63064759 16.1611091,5.68061677 L16.1611091,5.68061677 Z M16.1611091,3.359826 L12.7408858,4.0789812 C12.5028026,4.1291046 12.3503731,4.3604434 12.401391,4.59625474 C12.4457,4.80091246 12.628553,4.94125799 12.8326243,4.94125799 C12.8625797,4.94125799 12.8933152,4.9383277 12.9240508,4.93154176 L16.3441181,4.21284925 C16.5823573,4.16288007 16.7352548,3.9310786 16.684393,3.69557571 C16.6332192,3.46022704 16.3991924,3.31109063 16.1611091,3.359826 L16.1611091,3.359826 Z M8.80861188,15.7330584 L5.38854455,15.1053592 C5.14780901,15.0578576 4.9187748,15.2171729 4.8741537,15.4543723 C4.83000065,15.6906463 4.98820275,15.9185922 5.22784617,15.9620839 L8.64791349,16.5900916 C8.6750606,16.595181 8.70189567,16.5970317 8.7284187,16.5970317 C8.93701457,16.5970317 9.12236378,16.4511341 9.16183629,16.2409242 C9.20598934,16.004496 9.0482553,15.7767044 8.80861188,15.7330584 L8.80861188,15.7330584 Z M8.80861188,13.4122677 L5.38854455,12.7850311 C5.14780901,12.7383007 4.9187748,12.897616 4.8741537,13.1341985 C4.83000065,13.3707809 4.98820275,13.5984183 5.22784617,13.6420642 L8.64791349,14.2693008 C8.6750606,14.2750072 8.70189567,14.2770121 8.7284187,14.2770121 C8.93701457,14.2770121 9.12236378,14.1298806 9.16183629,13.9207503 C9.20598934,13.6837052 9.0482553,13.4563763 8.80861188,13.4122677 L8.80861188,13.4122677 Z M8.80861188,11.0925565 L5.38854455,10.4643946 C5.14780901,10.4185895 4.9187748,10.5768252 4.8741537,10.8132535 C4.83000065,11.0504528 4.98820275,11.2776275 5.22784617,11.3218903 L8.64791349,11.9497438 C8.6750606,11.9548333 8.70189567,11.9568382 8.7284187,11.9568382 C8.93701457,11.9568382 9.12236378,11.8103237 9.16183629,11.6005765 C9.20598934,11.3641482 9.0482553,11.1363566 8.80861188,11.0925565 L8.80861188,11.0925565 Z M8.80861188,8.77191995 L5.38854455,8.14483759 C5.14780901,8.09903251 4.9187748,8.25726825 4.8741537,8.49338804 C4.83000065,8.73027897 4.98820275,8.95791634 5.22784617,9.00156226 L8.64791349,9.62895306 C8.6750606,9.63404252 8.70189567,9.63620168 8.7284187,9.63620168 C8.93701457,9.63620168 9.12236378,9.48953288 9.16183629,9.27993994 C9.20598934,9.04335747 9.0482553,8.81556587 8.80861188,8.77191995 L8.80861188,8.77191995 Z M8.80861188,6.45174608 L5.38854455,5.82404683 C5.14780901,5.77885865 4.9187748,5.9360148 4.8741537,6.17321418 C4.83000065,6.40964242 4.98820275,6.63727979 5.22784617,6.68107994 L8.64791349,7.3087792 C8.6750606,7.31386865 8.70189567,7.31649049 8.7284187,7.31649049 C8.93701457,7.31649049 9.12236378,7.16997592 9.16183629,6.96007452 C9.20598934,6.7231836 9.0482553,6.495392 8.80861188,6.45174608 L8.80861188,6.45174608 Z M8.80861188,4.13157222 L5.38854455,3.50387296 C5.14780901,3.45914746 4.9187748,3.61692052 4.8741537,3.85288609 C4.83000065,4.08946856 4.98820275,4.31710593 5.22784617,4.36090607 L8.64791349,4.98860533 C8.6750606,4.99369479 8.70189567,4.99585395 8.7284187,4.99585395 C8.93701457,4.99585395 9.12236378,4.84933938 9.16183629,4.63959221 C9.20598934,4.40300973 9.0482553,4.17521814 8.80861188,4.13157222 L8.80861188,4.13157222 Z M20.2228779,18.7404628 L16.9151434,18.7506417 L18.4213398,18.448359 C18.7333755,18.3857433 18.9571051,18.1152311 18.9571051,17.8007646 L18.9571051,2.92706824 L20.2228779,2.92336682 L20.2228779,18.7404628 Z M1.33754104,2.98027616 L2.60346989,2.97626629 L2.60346989,17.9918504 C2.60346989,18.3123318 2.8360925,18.5862369 3.15546105,18.6422209 L3.99639727,18.789815 L1.33754104,18.7975263 L1.33754104,2.98027616 Z M3.94069889,1.64067032 L10.111517,2.72194784 L10.111517,18.5183775 L3.94069889,17.4378711 L3.94069889,1.64067032 Z M11.449214,18.4983282 L11.449214,2.70806751 L17.6198761,1.46947962 L17.6198761,17.2603572 L11.449214,18.4983282 Z M21.3639925,1.79181167 C21.2382421,1.6685852 21.0684946,1.59902934 20.8915704,1.59902934 L20.8896982,1.59902934 L18.9571051,1.60519837 L18.9571051,0.6613361 C18.9571051,0.462847416 18.8670828,0.274691865 18.711533,0.149768916 C18.5566072,0.0242290649 18.3526919,-0.0266654695 18.1554853,0.0134332545 L10.7719405,1.49523534 L3.38901977,0.202205709 C3.19430949,0.167659116 2.99398257,0.220712813 2.84280127,0.346098439 C2.69083988,0.472100968 2.60346989,0.657172002 2.60346989,0.852730395 L2.60346989,1.65455065 L0.666664279,1.66071968 C0.298618168,1.66179927 0,1.95791292 0,2.32188595 L0,19.4606975 C0,19.636515 0.0706760867,19.8052381 0.196738511,19.9290815 C0.322488899,20.0524622 0.491924286,20.1218638 0.668848529,20.1218638 L0.670876761,20.1218638 L20.8939107,20.0603277 C21.2619568,20.0586312 21.5605749,19.7631344 21.5605749,19.398853 L21.5605749,2.26019561 C21.5605749,2.08437813 21.4897428,1.91580926 21.3639925,1.79181167 L21.3639925,1.79181167 Z" id="Fill-1" fill="#FFFFFF" mask="url(#mask-2)"></path>
                </g>
            </g>
        </g>
    </g>
</svg>