<?xml version="1.0" encoding="UTF-8"?>
<svg width="20px" height="20px" viewBox="0 0 20 20" version="1.1" xmlns="http://www.w3.org/2000/svg" xmlns:xlink="http://www.w3.org/1999/xlink">
    <title>列表icon</title>
    <g id="20231220" stroke="none" stroke-width="1" fill="none" fill-rule="evenodd">
        <g id="首页_列表" transform="translate(-1474.000000, -520.000000)">
            <g id="列表icon" transform="translate(1474.000000, 520.000000)">
                <rect id="矩形" fill="#FFFFFF" opacity="0" x="0" y="0" width="20" height="20"></rect>
                <path d="M5.95220525,2.90098614 L18.245294,2.90098614 C18.7711791,2.90098614 19.1974993,2.47543257 19.1974993,1.95049307 C19.1974993,1.42555357 18.7711791,1 18.245294,1 L5.95220525,1 C5.42632014,1 5,1.42555357 5,1.95049307 C5,2.47543257 5.42632014,2.90098614 5.95220525,2.90098614 Z" id="路径" fill="#844C00" fill-rule="nonzero"></path>
                <path d="M5.95220525,10.8019723 L18.2001833,10.8019723 C18.7260684,10.8019723 19.1523885,10.3764187 19.1523885,9.8514792 C19.1523885,9.3265397 18.7260684,8.90098614 18.2001833,8.90098614 L5.95220525,8.90098614 C5.42632014,8.90098614 5,9.3265397 5,9.8514792 C5,10.3764187 5.42632014,10.8019723 5.95220525,10.8019723 Z" id="路径" fill="#844C00" fill-rule="nonzero"></path>
                <path d="M18.245294,16.8019723 L5.95220525,16.8019723 C5.42632014,16.8019723 5,17.2275258 5,17.7524653 C5,18.2774048 5.42632014,18.7029584 5.95220525,18.7029584 L18.245294,18.7029584 C18.7711791,18.7029584 19.1974993,18.2774048 19.1974993,17.7524653 C19.1974993,17.2275258 18.7711791,16.8019723 18.245294,16.8019723 L18.245294,16.8019723 Z" id="路径" fill="#844C00" fill-rule="nonzero"></path>
                <path d="M0,1.90098614 C0,2.95087179 0.852633621,3.80197227 1.9044105,3.80197227 C2.95618737,3.80197227 3.80882099,2.95087179 3.80882099,1.90098614 C3.80882099,0.851100484 2.95618737,0 1.9044105,0 C0.852633621,0 0,0.851100484 0,1.90098614 Z" id="路径" fill="#844C00" fill-rule="nonzero"></path>
                <path d="M0,9.90098614 C0,10.9508718 0.852633621,11.8019723 1.9044105,11.8019723 C2.95618737,11.8019723 3.80882099,10.9508718 3.80882099,9.90098614 C3.80882099,8.85110048 2.95618737,8 1.9044105,8 C0.852633621,8 0,8.85110048 0,9.90098614 Z" id="路径" fill="#844C00" fill-rule="nonzero"></path>
                <path d="M0,17.9009861 C0,18.9508718 0.852633621,19.8019723 1.9044105,19.8019723 C2.95618737,19.8019723 3.80882099,18.9508718 3.80882099,17.9009861 C3.80882099,16.8511005 2.95618737,16 1.9044105,16 C0.852633621,16 0,16.8511005 0,17.9009861 Z" id="路径" fill="#844C00" fill-rule="nonzero"></path>
            </g>
        </g>
    </g>
</svg>