<?xml version="1.0" encoding="UTF-8"?>
<svg width="20px" height="20px" viewBox="0 0 20 20" version="1.1" xmlns="http://www.w3.org/2000/svg" xmlns:xlink="http://www.w3.org/1999/xlink">
    <title>图库icon</title>
    <g id="20231220" stroke="none" stroke-width="1" fill="none" fill-rule="evenodd" opacity="0.5">
        <g id="首页_列表" transform="translate(-1583.000000, -520.000000)" fill="#844C00" fill-rule="nonzero">
            <g id="图库icon" transform="translate(1583.000000, 520.000000)">
                <path d="M0,8.8 L8.77192982,8.8 L8.77192982,0 L0,0 L0,8.8 Z M11.2280702,8.8 L20,8.8 L20,0 L11.2280702,0 L11.2280702,8.8 Z M1.59489633,1.6 L7.17703349,1.6 L7.17703349,7.2 L1.59489633,7.2 L1.59489633,1.6 Z M12.8229665,1.6 L18.4051037,1.6 L18.4051037,7.2 L12.8229665,7.2 L12.8229665,1.6 Z M0,20 L8.77192982,20 L8.77192982,11.2 L0,11.2 L0,20 Z M11.2280702,20 L20,20 L20,11.2 L11.2280702,11.2 L11.2280702,20 Z M1.59489633,12.8 L7.17703349,12.8 L7.17703349,18.4 L1.59489633,18.4 L1.59489633,12.8 Z M12.8229665,12.8 L18.4051037,12.8 L18.4051037,18.4 L12.8229665,18.4 L12.8229665,12.8 Z" id="形状"></path>
            </g>
        </g>
    </g>
</svg>