<?xml version="1.0" encoding="UTF-8"?>
<svg width="8px" height="16px" viewBox="0 0 8 16" version="1.1" xmlns="http://www.w3.org/2000/svg" xmlns:xlink="http://www.w3.org/1999/xlink">
    <title>Page 1备份</title>
    <defs>
        <polygon id="path-1" points="0 0 8 0 8 16 0 16"></polygon>
    </defs>
    <g id="20231220" stroke="none" stroke-width="1" fill="none" fill-rule="evenodd">
        <g id="首页_列表" transform="translate(-544.000000, -613.000000)">
            <g id="编组-9备份" transform="translate(296.000000, 607.000000)">
                <g id="Page-1备份" transform="translate(248.000000, 6.000000)">
                    <mask id="mask-2" fill="white">
                        <use xlink:href="#path-1"></use>
                    </mask>
                    <g id="Clip-2"></g>
                    <path d="M7.99956408,7.99993817 C8.00478999,7.87556327 7.96298274,7.74942169 7.87313736,7.65465649 L0.743192517,0.134215353 C0.573417569,-0.0447148951 0.297114536,-0.0447855626 0.127339587,0.13428602 C-0.042435361,0.313357603 -0.042435361,0.604790598 0.127339587,0.783932848 L6.96878761,8 L0.127272588,15.2160848 C-0.042435361,15.3952271 -0.042435361,15.6866601 0.127339587,15.8657316 C0.212227061,15.9552674 0.323713057,16 0.435266052,16 C0.546752048,16 0.658305043,15.9551968 0.743192517,15.8657316 L7.87313736,8.34536117 L7.87320435,8.34536117 C7.96304974,8.25052531 8.00478999,8.12431306 7.99956408,7.99993817" id="Fill-1" fill="#484848" mask="url(#mask-2)"></path>
                </g>
            </g>
        </g>
    </g>
</svg>