<?xml version="1.0" encoding="UTF-8"?>
<svg width="64px" height="64px" viewBox="0 0 64 64" version="1.1" xmlns="http://www.w3.org/2000/svg" xmlns:xlink="http://www.w3.org/1999/xlink">
    <title>左翻</title>
    <g id="6.13" stroke="none" stroke-width="1" fill="none" fill-rule="evenodd">
        <g id="家谱页_影像" transform="translate(-199.000000, -525.000000)" fill="#C9A470" fill-rule="nonzero">
            <g id="左翻" transform="translate(231.000000, 557.000000) scale(-1, 1) translate(-231.000000, -557.000000) translate(199.000000, 525.000000)">
                <path d="M32,0.00372420716 C49.6754804,0.00372420716 64,14.3306372 64,32.0055862 C64,49.6768111 49.6754805,64 32,64 C14.328247,64 0,49.6805353 0,32.0055862 C0,14.3306371 14.328247,0 32,0 L32,0.00372420716 Z M25.0408853,45.8222869 C24.2804892,46.578295 24.2059406,47.7216177 24.8694234,48.3845213 C25.5329062,49.0474251 26.6921374,48.9692173 27.4525335,48.2132092 L42.3324403,33.5101542 C42.7390303,33.1178959 42.963309,32.5738873 42.9511939,32.0093104 C42.9669695,31.4415255 42.7438985,30.8931146 42.3361677,30.4972941 L27.4525335,15.790515 C26.6921374,15.0345069 25.5366336,14.9600233 24.8694234,15.622927 C24.2059406,16.2821065 24.2804892,17.4291533 25.0408853,18.1851614 L39.0336633,32.0018621 L25.0408853,45.8185627 L25.0408853,45.8222869 Z" id="形状"></path>
            </g>
        </g>
    </g>
</svg>