<?xml version="1.0" encoding="UTF-8"?>
<svg width="21px" height="19px" viewBox="0 0 21 19" version="1.1" xmlns="http://www.w3.org/2000/svg" xmlns:xlink="http://www.w3.org/1999/xlink">
    <title>影像</title>
    <g id="20231220" stroke="none" stroke-width="1" fill="none" fill-rule="evenodd">
        <g id="家谱简介" transform="translate(-501.000000, -737.000000)" fill="#FFFFFF" fill-rule="nonzero">
            <g id="编组-3" transform="translate(501.000000, 732.000000)">
                <g id="影像" transform="translate(0.000000, 5.000000)">
                    <path d="M17.6379575,18.7828257 L3.36204249,18.7828257 C1.50767853,18.7828257 0,17.2751472 0,15.4207832 L0,3.36204249 C0,1.50767853 1.50767853,0 3.36204249,0 L17.6379575,0 C19.4923215,0 21,1.50767853 21,3.36204249 L21,15.4207832 C21,17.2751472 19.4923215,18.7828257 17.6379575,18.7828257 Z M3.36204249,1.34642949 C2.24942411,1.34642949 1.34642949,2.25211159 1.34642949,3.36204249 L1.34642949,15.4207832 C1.34642949,16.5334016 2.25211159,17.4363962 3.36204249,17.4363962 L17.6379575,17.4363962 C18.7505759,17.4363962 19.6535705,16.5307141 19.6535705,15.4207832 L19.6535705,3.36204249 C19.6535705,2.24942411 18.7478884,1.34642949 17.6379575,1.34642949 L3.36204249,1.34642949 Z" id="形状"></path>
                    <path d="M4.11722549,6.71333504 C4.11722549,7.81465331 5.01002035,8.70744817 6.11133862,8.70744817 C7.21265689,8.70744817 8.10545175,7.81465331 8.10545175,6.71333504 C8.10545175,5.61201677 7.21265689,4.71922191 6.11133862,4.71922191 C5.01002035,4.71922191 4.11722549,5.61201677 4.11722549,6.71333504 L4.11722549,6.71333504 Z" id="路径"></path>
                    <path d="M3.276043,15.6545943 C3.12823138,15.6545943 2.98310724,15.6062196 2.85948298,15.5094702 C2.56923471,15.2783466 2.51817251,14.8564116 2.74929614,14.5661633 C3.45341694,13.6766061 4.39403635,12.9832352 5.39646788,12.6204249 C6.47683645,12.2280522 7.56795495,12.515613 8.53007423,12.770924 C9.39544407,12.9993601 10.1452521,13.192859 10.666624,12.8837983 C11.093934,12.6284873 11.4244945,12.1528027 11.7013053,11.7254927 C12.6365498,10.2796263 13.9749168,9.35513181 15.2756591,9.25031994 C16.0066547,9.19388277 17.0547735,9.35513181 18.0545175,10.4623752 C18.3044535,10.7391861 18.2829537,11.1611211 18.0088303,11.4110571 C17.7347069,11.6609931 17.3100845,11.6394932 17.0601485,11.3653698 C16.5495265,10.8036857 15.9959048,10.5429997 15.3858459,10.588687 C14.5097261,10.6585616 13.531482,11.3761198 12.8300486,12.4564884 C12.4726133,13.0101101 12.0318659,13.6362938 11.3546199,14.0394164 C10.3495009,14.6414128 9.19925774,14.3377272 8.18876376,14.0716662 C7.33951881,13.8486051 6.54133606,13.6389813 5.85334016,13.8862298 C5.08203225,14.1684157 4.35372408,14.7059125 3.80010238,15.4046583 C3.67110315,15.5659073 3.47491682,15.6545943 3.276043,15.6545943 Z" id="路径"></path>
                </g>
            </g>
        </g>
    </g>
</svg>