<?xml version="1.0" encoding="UTF-8"?>
<svg width="350px" height="46px" viewBox="0 0 350 46" version="1.1" xmlns="http://www.w3.org/2000/svg" xmlns:xlink="http://www.w3.org/1999/xlink">
    <title>搜索框</title>
    <g id="20231220" stroke="none" stroke-width="1" fill="none" fill-rule="evenodd">
        <g id="向导页" transform="translate(-1145.000000, -625.000000)" fill="#FFFFFF">
            <path d="M1153.71386,626.559404 L1153.71386,627.419882 L1152.59681,627.419882 C1151.75034,627.419882 1151.06413,628.118324 1151.06413,628.979286 L1151.06413,634.214704 L1149.04402,634.214704 C1146.8199,634.214704 1145,636.065771 1145,638.327971 L1145,657.671546 C1145,659.934229 1146.8199,661.784812 1149.04402,661.784812 L1151.06413,661.784812 L1151.06413,667.020714 C1151.06413,667.881676 1151.75034,668.579635 1152.59681,668.579635 L1153.71386,668.579635 L1153.71386,669.440596 C1153.71386,670.302041 1154.40007,671 1155.24654,671 L1484.75346,671 C1485.59993,671 1486.28614,670.302041 1486.28614,669.440596 L1486.28614,668.579635 L1487.40319,668.579635 C1488.24966,668.579635 1488.93587,667.881676 1488.93587,667.020714 L1488.93587,661.784812 L1490.95598,661.784812 C1493.1801,661.784812 1495,659.934229 1495,657.671546 L1495,638.327971 C1495,636.065771 1493.1801,634.214704 1490.95598,634.214704 L1488.93587,634.214704 L1488.93587,628.979286 C1488.93587,628.118324 1488.24966,627.419882 1487.40319,627.419882 L1486.28614,627.419882 L1486.28614,626.559404 C1486.28614,625.698443 1485.59993,625 1484.75346,625 L1155.24654,625 C1154.40007,625 1153.71386,625.698443 1153.71386,626.559404 Z" id="搜索框"></path>
        </g>
    </g>
</svg>