<?xml version="1.0" encoding="UTF-8"?>
<svg width="6px" height="12px" viewBox="0 0 6 12" version="1.1" xmlns="http://www.w3.org/2000/svg" xmlns:xlink="http://www.w3.org/1999/xlink">
    <title>下拉 copy 2备份</title>
    <defs>
        <polygon id="path-1" points="-4.54747351e-13 0 6 0 6 12 -4.54747351e-13 12"></polygon>
    </defs>
    <g id="20231220" stroke="none" stroke-width="1" fill="none" fill-rule="evenodd">
        <g id="首页_图列" transform="translate(-387.000000, -1693.000000)">
            <g id="编组-3" transform="translate(387.000000, 1687.000000)">
                <g id="下拉-copy-2备份" transform="translate(3.000000, 12.000000) scale(-1, 1) rotate(-360.000000) translate(-3.000000, -12.000000) translate(0.000000, 6.000000)">
                    <mask id="mask-2" fill="white">
                        <use xlink:href="#path-1"></use>
                    </mask>
                    <g id="Clip-2"></g>
                    <path d="M5.99967306,5.99995362 C6.00359249,5.90667245 5.97223706,5.81206626 5.90485302,5.74099237 L0.557394388,0.100661515 C0.430063177,-0.0335361713 0.222835902,-0.033589172 0.0955046905,0.100714515 C-0.0318265207,0.235018202 -0.0318265207,0.453592948 0.0955046905,0.587949636 L5.22659071,6 L0.0954544414,11.4120636 C-0.0318265207,11.5464203 -0.0318265207,11.764995 0.0955046905,11.8992987 C0.159170296,11.9664506 0.242784793,12 0.326449539,12 C0.410064036,12 0.493728782,11.9663976 0.557394388,11.8992987 L5.90485302,6.25902088 L5.90490327,6.25902088 C5.9722873,6.18789399 6.00359249,6.0932348 5.99967306,5.99995362" id="Fill-1" fill="#999999" mask="url(#mask-2)"></path>
                </g>
            </g>
        </g>
    </g>
</svg>