<?xml version="1.0" encoding="UTF-8"?>
<svg width="751px" height="56px" viewBox="0 0 751 56" version="1.1" xmlns="http://www.w3.org/2000/svg" xmlns:xlink="http://www.w3.org/1999/xlink">
    <title>标题</title>
    <defs>
        <polygon id="path-1" points="0 0 30.1848049 0 30.1848049 51.7419355 0 51.7419355"></polygon>
        <polygon id="path-3" points="0 0 30.1848049 0 30.1848049 51.7419355 0 51.7419355"></polygon>
    </defs>
    <g id="20231220" stroke="none" stroke-width="1" fill="none" fill-rule="evenodd">
        <g id="首页_列表" transform="translate(-585.000000, -143.000000)">
            <g id="标题" transform="translate(585.000000, 143.000000)">
                <text id="鄞州图书馆家谱一站式服务平台" font-family="JQiTi, 迷你简启体" font-size="46" font-weight="normal" fill="#7C4F11">
                    <tspan x="53" y="40">鄞州图书馆家谱一站式服务平台</tspan>
                </text>
                <g id="Page-1" transform="translate(0.000000, 2.000000)">
                    <mask id="mask-2" fill="white">
                        <use xlink:href="#path-1"></use>
                    </mask>
                    <g id="Clip-2"></g>
                    <path d="M28.6427932,35.0818002 C25.7160502,30.8861842 21.4127621,30.7326496 21.4127621,30.7326496 L21.6110049,29.8478904 C23.2613381,28.9823542 24.3121262,27.3164406 24.9441202,25.8961824 L24.9504579,25.8961824 L24.9456412,25.8901908 L24.9504579,25.8819523 L24.9441202,25.8819523 C24.3296183,24.4552033 23.3034203,22.7755588 21.6629739,21.89055 L21.477153,21.0025454 C21.477153,21.0025454 25.7832297,20.9046826 28.7665048,16.7477624 C28.7665048,16.7477624 30.7136951,13.8503259 29.5873617,9.47720886 C29.5873617,9.47720886 33.3042872,1.46669306 22.1961,0 C22.1961,0 23.0765312,3.04398103 19.6668566,3.90702067 C19.6668566,3.90702067 13.3717609,3.61293311 13.1988688,10.0658833 C13.1988688,10.0658833 6.51007606,11.0969373 6.16327794,14.9542777 C6.16327794,14.9542777 9.3032206,16.1778117 9.21449301,19.59452 C9.21449301,19.59452 8.99520911,23.5784329 4.69090695,23.6143824 C4.69090695,23.6143824 1.99485575,23.2149426 2.20653443,20.5591672 C2.20653443,20.5591672 2.60225948,19.1062049 4.07716554,19.2425137 C4.07716554,19.2425137 5.23163824,19.5043964 4.70763844,21.2095051 C4.70763844,21.2095051 6.95422103,21.350058 6.3298323,18.5612192 C6.3298323,18.5612192 5.57412674,16.4049931 2.74219557,17.0832919 C2.74219557,17.0832919 -0.928845099,18.3882118 0.327537577,22.5735921 C0.327537577,22.5735921 2.48235048,27.0782746 7.50914872,25.0241553 C7.50914872,25.0241553 12.0849573,22.9667907 11.2800713,18.4054376 C11.2800713,18.4054376 10.7200735,15.489527 8.80178296,14.4028011 C8.80178296,14.4028011 10.2292831,12.0713208 13.5694966,12.1564514 C13.5694966,12.1564514 15.9207778,15.9666079 19.3918011,15.8010901 C19.3918011,15.8010901 24.2824659,15.0109482 23.9247669,10.5145041 C23.9247669,10.5145041 23.3640086,8.17029173 21.0515141,8.09215131 C21.0515141,8.09215131 19.6407454,7.76610857 18.856647,9.53238149 C18.856647,9.53238149 21.751448,8.91899173 21.5412904,11.7657493 C21.5412904,11.7657493 19.6521532,15.4223712 16.0776989,11.9826951 C16.0776989,11.9826951 13.7210941,9.05679846 17.2085954,6.35658533 C17.2085954,6.35658533 19.0754239,5.73820256 20.6167489,5.68377889 C20.6167489,5.68377889 23.7703809,4.88240276 24.4307677,2.41935702 C24.4307677,2.41935702 30.0778986,3.65811974 27.4657583,9.46322847 C27.4657583,9.46322847 29.1761727,13.2711381 26.1345909,16.4137309 C26.1345909,16.4137309 23.2889704,19.1798516 19.9495174,18.9044878 C19.9495174,18.9044878 16.887655,15.5938807 13.3999002,18.2933448 C13.3999002,18.2933448 10.6206986,20.9308959 12.7184723,24.1089389 C12.7184723,24.1089389 15.0788797,26.5282959 17.2788169,24.3288804 C17.2788169,24.3288804 18.6381236,22.7550876 17.2985905,21.2289778 C17.2985905,21.2289778 17.0242955,23.8845036 14.782276,22.9832675 C14.782276,22.9832675 12.9927673,21.4539124 14.9969968,19.7570421 C14.9969968,19.7570421 16.7393532,18.5667115 18.5879291,20.5411924 C18.5879291,20.5411924 19.4802752,22.0016442 19.4696279,23.4558548 C19.4696279,23.4558548 21.065964,23.8433114 22.0701068,25.8707181 C21.0401062,27.8868905 19.4361649,28.2501311 19.4361649,28.2501311 C19.4262781,29.7063389 18.5177076,31.1555565 18.5177076,31.1555565 C16.6407388,33.1040738 14.9146069,31.891025 14.9146069,31.891025 C12.9337001,30.1691898 14.7434894,28.6633017 14.7434894,28.6633017 C16.9981842,27.7920236 17.2367347,30.4505452 17.2367347,30.4505452 C18.5978159,28.9416613 17.2567618,27.3493944 17.2567618,27.3493944 C15.088006,25.1225174 12.6954031,27.5111675 12.6954031,27.5111675 C10.5540261,30.6612497 13.2982437,33.3359985 13.2982437,33.3359985 C16.74924,36.0786522 19.8547056,32.8097366 19.8547056,32.8097366 C23.1974542,32.5780615 26.0065697,35.3796325 26.0065697,35.3796325 C29.0058158,38.5636671 27.2429253,42.3476104 27.2429253,42.3476104 C29.7752107,48.1864218 24.1143905,49.3505393 24.1143905,49.3505393 C23.4861991,46.880004 20.3439749,46.0356881 20.3439749,46.0356881 C18.8026499,45.9625407 16.9434266,45.3169461 16.9434266,45.3169461 C13.4931909,42.5747918 15.8888358,39.6806007 15.8888358,39.6806007 C19.5101891,36.2866105 21.3488782,39.9679477 21.3488782,39.9679477 C21.5230378,42.8177011 18.633814,42.1661149 18.633814,42.1661149 C19.3940827,43.9428731 20.8094145,43.6358038 20.8094145,43.6358038 C23.12343,43.5876214 23.7168909,41.2494005 23.7168909,41.2494005 C24.134164,36.7599467 19.2574422,35.9058944 19.2574422,35.9058944 C15.7879399,35.6934424 13.3851968,39.472892 13.3851968,39.472892 C10.0437157,39.5148332 8.64765046,37.1638802 8.64765046,37.1638802 C10.5808979,36.1006214 11.1799359,33.1941974 11.1799359,33.1941974 C12.0456637,28.6453269 7.49824791,26.5275469 7.49824791,26.5275469 C2.49984249,24.4055229 0.284694827,28.8837425 0.284694827,28.8837425 C-1.02822,33.0513977 2.62583567,34.4045 2.62583567,34.4045 C5.44737304,35.1172505 6.23223195,32.9725083 6.23223195,32.9725083 C6.89388626,30.1931562 4.64578264,30.305249 4.64578264,30.305249 C5.14696677,32.0173479 3.98919847,32.2620048 3.98919847,32.2620048 C2.51201085,32.3793402 2.13681989,30.9201366 2.13681989,30.9201366 C1.96113927,28.261615 4.6615001,27.900122 4.6615001,27.900122 C8.96554874,27.9914938 9.13032855,31.9796507 9.13032855,31.9796507 C9.17266429,35.3956101 6.01725767,36.5769533 6.01725767,36.5769533 C6.31157977,40.439786 12.9849086,41.5587167 12.9849086,41.5587167 C13.0705941,48.0126655 19.3679714,47.8009624 19.3679714,47.8009624 C22.7677592,48.7116852 21.8477808,51.7419355 21.8477808,51.7419355 C32.9716855,50.4227855 29.3642752,42.3625894 29.3642752,42.3625894 C30.5514504,38.0044514 28.6427932,35.0818002 28.6427932,35.0818002" id="Fill-1" fill="#9D7747" mask="url(#mask-2)"></path>
                </g>
                <g id="Page-1-Copy" transform="translate(735.092402, 27.870968) rotate(-180.000000) translate(-735.092402, -27.870968) translate(720.000000, 2.000000)">
                    <mask id="mask-4" fill="white">
                        <use xlink:href="#path-3"></use>
                    </mask>
                    <g id="Clip-2"></g>
                    <path d="M28.6427932,35.0818002 C25.7160502,30.8861842 21.4127621,30.7326496 21.4127621,30.7326496 L21.6110049,29.8478904 C23.2613381,28.9823542 24.3121262,27.3164406 24.9441202,25.8961824 L24.9504579,25.8961824 L24.9456412,25.8901908 L24.9504579,25.8819523 L24.9441202,25.8819523 C24.3296183,24.4552033 23.3034203,22.7755588 21.6629739,21.89055 L21.477153,21.0025454 C21.477153,21.0025454 25.7832297,20.9046826 28.7665048,16.7477624 C28.7665048,16.7477624 30.7136951,13.8503259 29.5873617,9.47720886 C29.5873617,9.47720886 33.3042872,1.46669306 22.1961,0 C22.1961,0 23.0765312,3.04398103 19.6668566,3.90702067 C19.6668566,3.90702067 13.3717609,3.61293311 13.1988688,10.0658833 C13.1988688,10.0658833 6.51007606,11.0969373 6.16327794,14.9542777 C6.16327794,14.9542777 9.3032206,16.1778117 9.21449301,19.59452 C9.21449301,19.59452 8.99520911,23.5784329 4.69090695,23.6143824 C4.69090695,23.6143824 1.99485575,23.2149426 2.20653443,20.5591672 C2.20653443,20.5591672 2.60225948,19.1062049 4.07716554,19.2425137 C4.07716554,19.2425137 5.23163824,19.5043964 4.70763844,21.2095051 C4.70763844,21.2095051 6.95422103,21.350058 6.3298323,18.5612192 C6.3298323,18.5612192 5.57412674,16.4049931 2.74219557,17.0832919 C2.74219557,17.0832919 -0.928845099,18.3882118 0.327537577,22.5735921 C0.327537577,22.5735921 2.48235048,27.0782746 7.50914872,25.0241553 C7.50914872,25.0241553 12.0849573,22.9667907 11.2800713,18.4054376 C11.2800713,18.4054376 10.7200735,15.489527 8.80178296,14.4028011 C8.80178296,14.4028011 10.2292831,12.0713208 13.5694966,12.1564514 C13.5694966,12.1564514 15.9207778,15.9666079 19.3918011,15.8010901 C19.3918011,15.8010901 24.2824659,15.0109482 23.9247669,10.5145041 C23.9247669,10.5145041 23.3640086,8.17029173 21.0515141,8.09215131 C21.0515141,8.09215131 19.6407454,7.76610857 18.856647,9.53238149 C18.856647,9.53238149 21.751448,8.91899173 21.5412904,11.7657493 C21.5412904,11.7657493 19.6521532,15.4223712 16.0776989,11.9826951 C16.0776989,11.9826951 13.7210941,9.05679846 17.2085954,6.35658533 C17.2085954,6.35658533 19.0754239,5.73820256 20.6167489,5.68377889 C20.6167489,5.68377889 23.7703809,4.88240276 24.4307677,2.41935702 C24.4307677,2.41935702 30.0778986,3.65811974 27.4657583,9.46322847 C27.4657583,9.46322847 29.1761727,13.2711381 26.1345909,16.4137309 C26.1345909,16.4137309 23.2889704,19.1798516 19.9495174,18.9044878 C19.9495174,18.9044878 16.887655,15.5938807 13.3999002,18.2933448 C13.3999002,18.2933448 10.6206986,20.9308959 12.7184723,24.1089389 C12.7184723,24.1089389 15.0788797,26.5282959 17.2788169,24.3288804 C17.2788169,24.3288804 18.6381236,22.7550876 17.2985905,21.2289778 C17.2985905,21.2289778 17.0242955,23.8845036 14.782276,22.9832675 C14.782276,22.9832675 12.9927673,21.4539124 14.9969968,19.7570421 C14.9969968,19.7570421 16.7393532,18.5667115 18.5879291,20.5411924 C18.5879291,20.5411924 19.4802752,22.0016442 19.4696279,23.4558548 C19.4696279,23.4558548 21.065964,23.8433114 22.0701068,25.8707181 C21.0401062,27.8868905 19.4361649,28.2501311 19.4361649,28.2501311 C19.4262781,29.7063389 18.5177076,31.1555565 18.5177076,31.1555565 C16.6407388,33.1040738 14.9146069,31.891025 14.9146069,31.891025 C12.9337001,30.1691898 14.7434894,28.6633017 14.7434894,28.6633017 C16.9981842,27.7920236 17.2367347,30.4505452 17.2367347,30.4505452 C18.5978159,28.9416613 17.2567618,27.3493944 17.2567618,27.3493944 C15.088006,25.1225174 12.6954031,27.5111675 12.6954031,27.5111675 C10.5540261,30.6612497 13.2982437,33.3359985 13.2982437,33.3359985 C16.74924,36.0786522 19.8547056,32.8097366 19.8547056,32.8097366 C23.1974542,32.5780615 26.0065697,35.3796325 26.0065697,35.3796325 C29.0058158,38.5636671 27.2429253,42.3476104 27.2429253,42.3476104 C29.7752107,48.1864218 24.1143905,49.3505393 24.1143905,49.3505393 C23.4861991,46.880004 20.3439749,46.0356881 20.3439749,46.0356881 C18.8026499,45.9625407 16.9434266,45.3169461 16.9434266,45.3169461 C13.4931909,42.5747918 15.8888358,39.6806007 15.8888358,39.6806007 C19.5101891,36.2866105 21.3488782,39.9679477 21.3488782,39.9679477 C21.5230378,42.8177011 18.633814,42.1661149 18.633814,42.1661149 C19.3940827,43.9428731 20.8094145,43.6358038 20.8094145,43.6358038 C23.12343,43.5876214 23.7168909,41.2494005 23.7168909,41.2494005 C24.134164,36.7599467 19.2574422,35.9058944 19.2574422,35.9058944 C15.7879399,35.6934424 13.3851968,39.472892 13.3851968,39.472892 C10.0437157,39.5148332 8.64765046,37.1638802 8.64765046,37.1638802 C10.5808979,36.1006214 11.1799359,33.1941974 11.1799359,33.1941974 C12.0456637,28.6453269 7.49824791,26.5275469 7.49824791,26.5275469 C2.49984249,24.4055229 0.284694827,28.8837425 0.284694827,28.8837425 C-1.02822,33.0513977 2.62583567,34.4045 2.62583567,34.4045 C5.44737304,35.1172505 6.23223195,32.9725083 6.23223195,32.9725083 C6.89388626,30.1931562 4.64578264,30.305249 4.64578264,30.305249 C5.14696677,32.0173479 3.98919847,32.2620048 3.98919847,32.2620048 C2.51201085,32.3793402 2.13681989,30.9201366 2.13681989,30.9201366 C1.96113927,28.261615 4.6615001,27.900122 4.6615001,27.900122 C8.96554874,27.9914938 9.13032855,31.9796507 9.13032855,31.9796507 C9.17266429,35.3956101 6.01725767,36.5769533 6.01725767,36.5769533 C6.31157977,40.439786 12.9849086,41.5587167 12.9849086,41.5587167 C13.0705941,48.0126655 19.3679714,47.8009624 19.3679714,47.8009624 C22.7677592,48.7116852 21.8477808,51.7419355 21.8477808,51.7419355 C32.9716855,50.4227855 29.3642752,42.3625894 29.3642752,42.3625894 C30.5514504,38.0044514 28.6427932,35.0818002 28.6427932,35.0818002" id="Fill-1" fill="#9D7747" mask="url(#mask-4)"></path>
                </g>
            </g>
        </g>
    </g>
</svg>